<?xml version="1.0" standalone="no"?>
<!DOCTYPE svg PUBLIC "-//W3C//DTD SVG 20010904//EN"
 "http://www.w3.org/TR/2001/REC-SVG-20010904/DTD/svg10.dtd">
<svg version="1.0" xmlns="http://www.w3.org/2000/svg"
 width="1450.000000pt" height="1450.000000pt" viewBox="0 0 1450.000000 1450.000000"
 preserveAspectRatio="xMidYMid meet">
<metadata>
Created by potrace 1.14, written by Peter Selinger 2001-2017
</metadata>
<g transform="translate(0.000000,1450.000000) scale(0.100000,-0.100000)"
fill="#000000" stroke="none">
<path d="M7470 12996 c0 -9 -9 -25 -20 -36 -11 -11 -20 -27 -20 -35 0 -8 -5
-15 -11 -15 -5 0 -8 -4 -5 -8 3 -5 -1 -9 -9 -9 -8 0 -15 4 -15 9 0 5 -8 2 -17
-8 -13 -12 -18 -34 -19 -73 0 -33 -5 -56 -12 -59 -7 -2 -12 -17 -12 -33 0 -16
-5 -29 -12 -29 -10 0 -10 -3 0 -9 16 -10 22 -81 8 -81 -5 0 -6 -3 -3 -6 3 -4
2 -15 -4 -25 -6 -11 -6 -19 0 -19 8 0 6 -58 -4 -87 -3 -7 1 -13 8 -13 7 0 8
-3 2 -8 -5 -4 -10 -29 -10 -57 0 -27 -5 -60 -12 -71 -9 -16 -9 -24 0 -34 9
-10 9 -11 0 -6 -9 5 -13 0 -13 -13 0 -12 -6 -21 -12 -21 -10 0 -9 -3 1 -9 9
-6 10 -10 2 -16 -9 -5 -9 -10 -1 -20 8 -10 8 -15 0 -20 -6 -4 -9 -14 -6 -22 3
-8 1 -11 -4 -8 -6 3 -10 -1 -10 -9 0 -9 -7 -16 -16 -16 -8 0 -12 -4 -9 -10 3
-6 -1 -7 -9 -4 -11 4 -16 0 -16 -12 0 -11 -4 -15 -8 -9 -10 14 -44 16 -35 2 4
-6 0 -8 -10 -4 -9 3 -19 2 -22 -3 -3 -4 -16 -7 -30 -6 -13 2 -22 -1 -19 -5 4
-8 -44 -14 -70 -10 -5 1 -6 -4 -3 -12 3 -8 -1 -14 -9 -14 -8 0 -14 5 -14 11 0
6 -4 5 -9 -3 -5 -8 -18 -12 -30 -8 -12 3 -19 2 -16 -3 4 -7 -33 -16 -87 -22
-10 -1 -18 -6 -18 -11 0 -5 -7 -6 -16 -3 -8 3 -12 2 -9 -4 5 -9 -58 -15 -68
-7 -2 1 -12 -4 -21 -12 -15 -13 -19 -13 -27 0 -7 12 -9 11 -9 -3 0 -11 -6 -15
-20 -11 -13 3 -20 0 -20 -8 0 -11 -3 -11 -11 1 -8 11 -12 12 -16 3 -2 -7 -12
-13 -22 -13 -9 0 -27 -9 -39 -20 -14 -14 -22 -16 -22 -8 -1 8 -5 7 -14 -4 -7
-10 -18 -18 -25 -18 -6 0 -11 -8 -11 -17 0 -14 -2 -15 -9 -4 -6 10 -10 10 -16
1 -4 -6 -14 -9 -22 -6 -9 4 -11 2 -7 -6 5 -8 2 -9 -9 -5 -10 4 -16 2 -14 -6 1
-6 -9 -11 -25 -11 -16 1 -28 -3 -28 -9 0 -5 -9 -7 -20 -4 -11 3 -20 1 -20 -5
0 -5 -4 -7 -9 -3 -5 3 -12 1 -16 -5 -4 -6 -11 -7 -17 -4 -7 5 -9 2 -5 -8 4
-12 1 -14 -14 -11 -11 3 -19 0 -19 -6 0 -7 -4 -10 -9 -6 -5 3 -17 -2 -25 -11
-12 -11 -16 -12 -16 -2 -1 8 -4 7 -11 -4 -6 -11 -16 -15 -26 -11 -11 4 -14 3
-9 -5 4 -7 1 -12 -8 -12 -8 0 -16 -5 -18 -10 -2 -6 -13 -12 -25 -13 -12 0 -21
-6 -20 -11 1 -6 -4 -10 -11 -11 -7 0 -16 -4 -20 -10 -4 -5 -14 -11 -22 -13
-15 -4 -20 -7 -72 -56 -16 -14 -28 -20 -28 -15 0 6 -7 3 -16 -5 -8 -9 -19 -16
-24 -16 -5 0 -7 -8 -3 -17 3 -10 3 -15 -1 -11 -9 7 -76 -54 -70 -64 2 -4 -5
-9 -16 -13 -11 -3 -19 -9 -18 -13 3 -16 -15 -41 -24 -36 -6 4 -9 1 -6 -6 2 -7
-5 -23 -16 -35 -30 -31 -51 -65 -48 -77 2 -6 -4 -8 -12 -5 -10 4 -13 1 -9 -9
3 -7 0 -14 -6 -14 -6 0 -11 -7 -11 -16 0 -10 -5 -14 -16 -10 -8 3 -12 2 -9 -4
3 -6 1 -10 -5 -10 -6 0 -9 -4 -5 -9 3 -5 1 -12 -5 -16 -5 -3 -10 -1 -10 6 0 7
-3 9 -6 6 -4 -4 -2 -13 4 -20 9 -10 8 -14 -3 -14 -8 0 -16 5 -17 11 0 6 -2 16
-2 21 -1 6 -5 16 -10 24 -5 8 -4 16 4 21 9 6 9 9 0 15 -6 4 -9 13 -6 21 3 8 2
14 -2 14 -6 0 -10 27 -13 83 0 9 -6 17 -12 17 -7 0 -6 4 3 10 12 7 12 10 1 10
-7 0 -11 6 -7 15 3 8 1 15 -4 15 -5 0 -7 7 -3 16 3 9 1 19 -5 23 -7 4 -13 19
-14 34 -1 15 -6 27 -11 27 -5 0 -6 7 -3 16 4 11 2 15 -7 11 -8 -3 -13 4 -12
22 0 15 -5 25 -12 24 -7 -2 -10 4 -7 12 4 8 1 15 -6 15 -6 0 -8 5 -5 10 3 6 1
10 -4 10 -6 0 -11 7 -11 16 0 10 -6 14 -15 10 -8 -3 -14 -2 -14 2 4 25 -4 32
-40 32 -30 0 -45 -7 -70 -32 -17 -17 -31 -36 -31 -40 0 -5 -4 -6 -10 -3 -9 5
-11 1 -10 -20 1 -10 -25 -33 -31 -29 -10 6 -20 -26 -12 -38 4 -7 1 -8 -6 -4
-8 5 -14 0 -18 -13 -3 -11 -9 -18 -14 -15 -5 3 -9 0 -9 -6 0 -7 -9 -25 -21
-41 -11 -16 -17 -33 -14 -39 3 -5 0 -7 -8 -4 -10 3 -18 -5 -25 -25 -6 -17 -16
-36 -22 -43 -21 -26 -59 -88 -53 -88 3 0 -2 -9 -12 -20 -10 -11 -14 -20 -9
-20 5 0 1 -5 -8 -11 -10 -5 -18 -17 -18 -24 0 -8 -5 -15 -11 -15 -5 0 -8 -4
-5 -9 3 -5 -4 -20 -15 -35 -11 -14 -18 -26 -14 -26 4 0 -1 -7 -9 -16 -9 -8
-14 -20 -11 -25 4 -5 1 -9 -5 -9 -6 0 -8 -4 -5 -10 3 -5 -1 -10 -10 -10 -9 0
-13 -5 -10 -10 3 -6 -3 -23 -14 -39 -12 -16 -21 -33 -21 -39 0 -5 -7 -15 -15
-22 -8 -7 -12 -16 -10 -21 3 -4 -3 -12 -12 -18 -10 -6 -14 -11 -9 -11 5 0 3
-7 -4 -15 -6 -8 -9 -19 -5 -25 4 -6 1 -9 -7 -8 -7 2 -13 -4 -13 -12 0 -8 -8
-24 -17 -34 -10 -11 -18 -25 -18 -32 0 -7 -6 -19 -13 -26 -7 -7 -18 -24 -24
-38 -31 -62 -61 -109 -67 -103 -3 3 -6 -4 -6 -16 0 -12 -4 -20 -8 -17 -5 3 -9
0 -9 -7 0 -12 -76 -130 -100 -155 -7 -8 -11 -18 -8 -23 4 -5 -1 -6 -10 -3 -9
4 -15 3 -14 -2 4 -22 -3 -33 -22 -39 -11 -4 -18 -9 -15 -12 2 -3 -8 -18 -24
-33 -16 -15 -26 -31 -23 -34 4 -3 1 -6 -6 -6 -8 0 -11 -8 -8 -20 3 -11 1 -18
-3 -15 -5 3 -8 -4 -7 -15 1 -11 5 -20 9 -20 4 0 8 -7 8 -16 0 -8 4 -12 10 -9
6 3 10 -1 10 -10 0 -9 4 -14 9 -11 22 14 36 -33 18 -61 -5 -8 -3 -13 4 -13 8
0 6 -6 -4 -18 -10 -10 -14 -22 -11 -25 4 -4 2 -12 -3 -19 -8 -11 -22 -52 -25
-78 -1 -3 -8 -10 -16 -16 -8 -6 -12 -16 -8 -22 3 -6 2 -13 -4 -17 -6 -4 -8
-10 -5 -15 3 -4 -2 -11 -11 -14 -9 -4 -14 -13 -10 -21 3 -8 1 -15 -4 -15 -5 0
-17 -14 -27 -30 -16 -28 -47 -47 -66 -42 -5 1 -6 -2 -2 -8 3 -5 -1 -13 -9 -16
-9 -3 -16 -10 -16 -16 0 -5 6 -6 13 -2 8 6 8 3 -1 -9 -8 -9 -11 -25 -7 -38 4
-12 3 -19 -2 -16 -5 3 -14 -7 -20 -24 -8 -22 -8 -29 0 -29 7 0 6 -4 -2 -9 -8
-5 -16 -18 -17 -28 -2 -9 -8 -19 -14 -21 -5 -2 -7 -9 -3 -15 4 -7 0 -8 -11 -4
-10 4 -15 3 -11 -3 4 -6 -1 -17 -9 -26 -9 -8 -16 -12 -16 -8 0 4 -6 -1 -14
-11 -8 -11 -12 -24 -9 -29 4 -5 1 -6 -5 -3 -12 8 -138 -112 -134 -127 2 -6 1
-8 -3 -4 -9 8 -35 -16 -35 -32 0 -6 -5 -8 -12 -4 -8 5 -9 2 -5 -9 4 -10 1 -17
-6 -17 -7 0 -25 -20 -42 -45 -16 -24 -33 -41 -37 -39 -4 3 -8 -2 -8 -11 0 -8
-9 -23 -19 -32 -11 -9 -18 -19 -17 -22 2 -3 -2 -12 -10 -19 -10 -9 -14 -9 -14
-1 0 8 -5 7 -17 -2 -16 -13 -16 -11 1 15 10 16 12 25 5 21 -9 -6 -10 -3 -5 11
12 29 13 84 1 84 -5 0 -4 4 4 9 11 7 11 9 0 14 -10 4 -10 6 -2 6 9 1 10 8 3
26 -6 16 -6 26 1 31 8 4 7 9 -1 14 -9 5 -9 13 -1 27 5 11 8 23 5 26 -11 11
-11 57 0 57 6 0 3 5 -7 11 -12 7 -15 15 -9 22 10 14 10 27 -1 45 -5 6 -4 12 1
12 10 0 1 57 -12 78 -3 6 0 13 6 15 10 4 10 6 1 6 -7 1 -13 12 -13 25 0 13 -7
36 -14 52 -8 15 -13 31 -10 36 3 4 -2 8 -11 8 -9 0 -14 4 -10 9 6 11 -15 61
-27 61 -4 0 -8 5 -8 10 0 11 -10 24 -42 61 -10 10 -18 22 -18 25 0 3 -7 12
-15 20 -12 12 -15 12 -15 2 -1 -7 -7 -2 -15 12 -9 15 -15 19 -15 10 -1 -11 -4
-10 -13 5 -7 11 -21 22 -32 23 -11 2 -21 8 -23 13 -2 5 -10 9 -18 9 -8 0 -14
5 -14 10 0 6 -5 10 -11 10 -5 0 -7 -6 -4 -12 4 -7 0 -5 -8 4 -8 10 -17 15 -20
11 -4 -3 -9 1 -13 10 -3 9 -14 14 -25 12 -10 -2 -19 0 -19 6 0 5 -9 9 -20 9
-11 0 -20 5 -20 10 0 6 -9 10 -20 10 -11 0 -20 5 -20 10 0 6 -12 10 -26 10
-14 0 -23 4 -19 10 3 6 -4 10 -17 10 -13 0 -29 5 -36 12 -7 7 -12 9 -12 4 0
-4 -7 0 -16 8 -8 9 -24 16 -35 16 -10 0 -19 5 -19 10 0 6 -6 10 -13 10 -19 0
-67 24 -67 33 0 5 -4 6 -9 2 -5 -3 -16 2 -24 10 -9 8 -20 15 -26 15 -6 0 -11
5 -11 10 0 6 -5 10 -11 10 -7 0 -20 9 -30 21 -9 11 -20 20 -23 20 -3 -1 -5 0
-4 2 4 4 -47 53 -52 51 -3 -1 -6 9 -7 23 0 14 -7 29 -15 34 -10 7 -10 9 2 9
13 0 13 1 0 10 -8 5 -11 12 -8 16 4 4 3 15 -3 25 -7 13 -6 19 1 19 6 0 8 5 5
10 -8 12 25 90 38 90 4 0 5 4 2 10 -9 14 72 93 86 84 7 -4 9 -3 6 3 -6 9 20
27 31 23 2 -1 10 7 18 17 7 10 14 14 14 9 0 -6 7 -1 15 10 11 14 14 15 15 4 0
-13 2 -13 9 -1 5 8 19 16 32 18 12 2 28 11 35 21 11 14 13 14 14 2 1 -12 3
-12 14 2 7 10 16 15 20 11 4 -4 11 -1 16 7 6 8 10 10 10 4 0 -6 7 -11 15 -11
8 0 12 4 9 9 -5 7 18 13 40 9 4 -1 14 3 22 10 7 6 18 8 24 4 5 -3 10 -2 10 4
0 5 8 8 18 6 9 -1 24 1 33 6 10 5 21 3 29 -4 10 -9 11 -9 6 1 -7 12 8 13 149
14 22 0 46 5 52 10 7 6 22 8 33 5 11 -3 20 -1 20 3 0 5 9 7 20 5 11 -2 20 0
20 6 0 5 7 9 15 9 8 0 15 4 15 10 0 5 7 6 17 3 10 -4 14 -2 9 5 -3 6 1 15 10
20 11 6 13 11 5 16 -6 4 -11 12 -11 17 0 6 5 7 11 3 7 -4 7 1 -1 16 -7 13 -8
20 -2 16 6 -4 10 2 9 14 -1 11 -4 20 -7 20 -3 0 -6 12 -7 28 -1 49 -7 82 -15
82 -4 0 -8 8 -8 18 0 23 -47 87 -63 87 -7 0 -18 6 -25 12 -9 9 -19 10 -31 3
-11 -5 -22 -5 -27 0 -13 13 -204 17 -204 5 0 -5 -5 -3 -10 5 -9 13 -11 13 -20
0 -8 -12 -10 -12 -10 -1 0 10 -3 11 -14 2 -11 -9 -15 -9 -20 1 -4 8 -8 9 -11
2 -3 -6 -21 -9 -40 -8 -22 2 -35 -1 -35 -9 0 -7 -3 -8 -8 -2 -8 12 -44 13 -53
3 -3 -5 -18 -9 -35 -10 -16 -1 -33 -4 -39 -7 -13 -7 -35 -12 -57 -14 -10 -1
-18 -7 -18 -15 0 -7 -5 -10 -10 -7 -6 4 -17 1 -25 -5 -8 -6 -19 -9 -25 -5 -5
3 -10 -1 -10 -9 0 -10 -6 -13 -17 -9 -11 4 -14 3 -9 -5 4 -8 0 -12 -11 -12
-10 0 -36 -16 -57 -35 -22 -19 -44 -35 -50 -35 -11 0 -76 -69 -76 -81 0 -5 -7
-6 -15 -3 -9 4 -15 1 -15 -7 0 -7 -10 -23 -23 -34 -12 -11 -28 -33 -35 -48 -7
-15 -16 -26 -22 -22 -5 3 -7 -4 -5 -15 2 -13 -1 -20 -11 -20 -8 0 -12 -5 -8
-11 3 -6 -2 -23 -13 -37 -19 -26 -32 -66 -36 -104 -1 -10 -5 -18 -9 -18 -4 0
-7 -8 -7 -17 0 -10 -2 -31 -5 -48 -3 -16 -7 -39 -9 -50 -1 -11 -6 -26 -10 -32
-5 -8 -3 -13 3 -13 6 0 8 -5 3 -12 -12 -20 -12 -38 -1 -38 6 0 5 -6 -2 -15 -7
-9 -8 -15 -2 -15 6 0 9 -11 7 -25 -1 -14 1 -28 5 -30 4 -2 6 -16 5 -30 -2 -14
1 -25 7 -25 7 0 6 -5 -1 -14 -8 -9 -8 -15 -2 -18 6 -1 12 -15 13 -30 1 -16 6
-28 10 -28 4 0 8 -11 8 -25 0 -14 4 -25 8 -25 7 0 11 -15 14 -57 1 -7 4 -10 7
-8 4 2 18 -21 31 -51 14 -30 28 -54 33 -54 4 0 7 -7 7 -15 0 -8 5 -15 10 -15
6 0 10 -7 10 -16 0 -8 5 -12 10 -9 6 3 10 -1 10 -10 0 -9 4 -14 9 -10 6 3 15
-3 20 -14 6 -11 20 -23 31 -26 11 -3 20 -13 20 -21 0 -8 4 -12 10 -9 6 3 10 1
10 -6 0 -7 3 -10 6 -6 6 6 19 -2 61 -41 22 -20 25 -21 19 -5 -6 17 -5 17 8 1
7 -10 18 -18 25 -18 6 0 11 -4 11 -10 0 -5 7 -7 15 -4 8 4 15 1 15 -6 0 -6 4
-9 9 -6 5 4 11 2 13 -4 2 -6 14 -12 27 -15 14 -2 28 -10 33 -17 4 -7 8 -9 8
-5 0 4 10 2 23 -5 12 -7 24 -13 27 -14 3 -1 15 -5 28 -9 12 -4 22 -11 22 -15
0 -4 7 -11 16 -14 10 -4 13 -2 8 7 -4 6 2 4 13 -6 11 -9 23 -14 26 -10 4 3 7
1 7 -6 0 -7 4 -10 9 -7 5 4 11 3 13 -2 6 -15 109 -63 120 -56 7 4 8 3 4 -5 -4
-6 0 -14 8 -17 9 -3 13 -10 10 -15 -3 -5 1 -6 9 -3 8 3 21 -6 31 -21 9 -14 22
-23 28 -19 6 4 8 3 4 -4 -3 -6 4 -18 16 -26 12 -9 19 -16 14 -16 -5 0 -1 -11
8 -25 9 -14 14 -29 11 -34 -2 -5 2 -12 11 -15 9 -4 14 -9 11 -13 -4 -3 -2 -14
4 -24 7 -14 6 -19 -2 -19 -9 0 -8 -4 0 -14 13 -16 13 -184 0 -201 -4 -5 -7
-12 -6 -15 2 -11 -26 -101 -34 -106 -5 -3 -9 -14 -9 -25 0 -10 -4 -19 -10 -19
-5 0 -9 -3 -8 -7 3 -13 -13 -53 -22 -53 -4 0 -13 -14 -19 -31 -6 -17 -15 -28
-20 -24 -6 3 -17 -7 -25 -22 -8 -15 -15 -24 -16 -20 0 5 -12 -1 -26 -12 -15
-11 -31 -18 -37 -14 -6 3 -7 1 -3 -5 6 -11 -12 -17 -36 -13 -5 0 -8 -3 -8 -8
0 -5 -16 -9 -35 -8 -19 1 -35 4 -35 8 0 4 -13 6 -30 5 -17 -1 -32 4 -34 11 -3
7 -12 13 -21 13 -8 0 -15 5 -15 11 0 5 -4 8 -8 5 -5 -3 -21 8 -36 25 -15 16
-33 26 -38 22 -7 -3 -8 -1 -4 5 4 7 2 12 -4 12 -6 0 -8 5 -5 10 3 6 -1 10 -9
10 -9 0 -16 7 -16 16 0 8 -5 12 -10 9 -5 -3 -10 -1 -10 5 0 17 -26 40 -35 32
-5 -4 -5 -2 -2 5 4 6 -4 20 -18 31 -14 11 -25 24 -25 29 0 5 -9 15 -20 23 -11
8 -20 18 -20 23 0 5 -7 15 -15 23 -8 9 -15 12 -15 8 0 -3 -6 -1 -14 5 -8 7
-30 13 -50 14 -19 2 -38 6 -42 10 -4 4 -13 2 -21 -4 -7 -6 -13 -8 -13 -4 0 4
-7 2 -15 -5 -8 -7 -15 -9 -15 -4 0 5 -5 2 -10 -6 -6 -10 -10 -11 -10 -2 0 6
-5 12 -11 12 -5 0 -8 -4 -4 -9 3 -5 -4 -12 -15 -16 -11 -4 -18 -11 -15 -16 4
-5 2 -9 -3 -9 -10 0 -43 -61 -49 -90 -8 -33 -8 -142 -1 -146 5 -3 6 -10 3 -15
-4 -5 -1 -9 5 -9 6 0 9 -4 5 -9 -3 -5 -1 -12 5 -16 6 -4 8 -11 5 -16 -4 -5 -1
-9 4 -9 6 0 11 -9 11 -21 0 -11 4 -18 9 -15 5 4 15 -7 22 -23 7 -16 17 -27 21
-25 5 3 12 -4 16 -16 4 -12 12 -22 17 -22 6 0 9 -4 7 -10 -1 -5 2 -7 7 -4 5 3
20 -5 32 -19 13 -13 31 -25 40 -25 8 0 24 -8 35 -18 11 -11 27 -18 37 -16 9 1
15 -2 11 -7 -3 -5 2 -9 10 -9 9 0 16 -5 16 -11 0 -5 5 -7 10 -4 11 7 70 -15
70 -26 0 -4 7 -10 16 -13 8 -3 12 -2 9 4 -3 6 -2 10 4 10 5 0 13 -5 16 -10 4
-6 10 -8 15 -5 5 3 12 0 17 -7 4 -7 17 -14 28 -15 37 -4 53 -9 71 -23 13 -11
15 -11 10 -2 -6 9 -3 12 10 10 11 -2 21 -6 24 -10 3 -4 27 -8 53 -10 26 -2 47
-7 47 -11 0 -5 4 -6 9 -3 5 3 14 -1 21 -8 9 -12 7 -17 -8 -25 -11 -6 -23 -7
-27 -3 -3 4 -5 2 -3 -3 1 -6 -14 -27 -35 -48 -20 -22 -34 -44 -30 -50 3 -7 2
-9 -2 -4 -9 7 -65 -70 -65 -90 0 -6 -3 -13 -7 -15 -10 -4 -47 -80 -45 -90 1
-5 -2 -8 -8 -8 -5 0 -10 -6 -10 -13 0 -8 -9 -24 -20 -37 -11 -12 -17 -27 -14
-31 3 -5 -2 -12 -10 -15 -9 -3 -16 -12 -16 -20 0 -8 -5 -14 -11 -14 -5 0 -8
-4 -4 -9 3 -5 -2 -16 -10 -25 -9 -8 -16 -19 -15 -23 0 -4 -7 -16 -15 -26 -8
-9 -15 -22 -15 -27 0 -6 -4 -10 -9 -10 -10 0 -27 -39 -23 -52 1 -5 -5 -8 -14
-8 -8 0 -12 -4 -9 -10 3 -5 1 -10 -4 -10 -6 0 -11 -7 -11 -15 0 -8 -4 -15 -9
-15 -5 0 -12 -7 -15 -16 -4 -10 -2 -13 7 -8 6 4 2 -3 -10 -15 -13 -12 -23 -28
-23 -36 0 -7 -4 -15 -10 -17 -5 -1 -11 -14 -14 -28 -2 -14 -9 -24 -17 -22 -9
2 -9 -1 2 -14 12 -15 12 -17 0 -9 -11 6 -13 4 -8 -9 4 -9 3 -14 -2 -11 -5 3
-12 1 -16 -5 -3 -5 -1 -10 6 -10 7 0 5 -6 -6 -13 -10 -8 -15 -19 -11 -25 4 -8
0 -12 -11 -12 -14 0 -15 -2 -4 -9 9 -6 10 -11 2 -15 -6 -4 -11 -17 -11 -30 0
-12 -6 -28 -12 -35 -10 -10 -10 -12 -1 -7 9 5 11 -3 8 -29 -3 -24 -1 -35 8
-35 9 0 9 -2 -1 -9 -11 -6 -10 -11 3 -25 9 -9 13 -16 8 -16 -14 0 21 -20 36
-20 11 0 9 4 -5 15 -19 14 -19 14 1 15 17 0 17 2 5 10 -13 9 -13 11 0 20 11 7
11 10 2 10 -9 0 -10 5 -3 19 6 10 7 21 4 25 -3 3 0 6 9 6 19 0 60 -47 48 -55
-6 -4 -10 -12 -10 -18 0 -9 2 -9 8 -1 4 6 15 10 24 9 11 -2 15 2 11 13 -4 10
-2 13 5 8 7 -4 12 -2 12 4 0 6 4 9 9 5 5 -3 13 0 17 6 4 7 3 9 -4 5 -6 -3 -13
-2 -17 4 -3 5 -1 11 4 11 6 1 15 2 20 3 5 0 13 5 18 10 4 5 3 6 -4 2 -7 -3
-14 2 -18 14 -6 18 -9 19 -23 8 -12 -9 -11 -6 2 10 20 23 32 30 21 12 -3 -5
-1 -10 5 -10 6 0 8 -4 5 -10 -3 -5 1 -10 10 -10 9 0 14 4 11 8 -2 4 3 8 13 8
13 0 16 -7 13 -31 -3 -16 -10 -33 -16 -37 -7 -5 -4 -8 7 -8 9 0 17 5 17 11 0
5 5 7 11 3 8 -4 3 -12 -12 -21 -23 -14 -23 -14 -2 -10 20 4 21 2 12 -21 -5
-14 -8 -31 -5 -39 3 -7 2 -13 -3 -13 -4 0 -7 -12 -6 -27 1 -16 -1 -32 -4 -38
-3 -5 -6 -14 -8 -20 -1 -5 -5 -23 -9 -40 -4 -16 -6 -38 -6 -47 0 -10 -3 -18
-7 -18 -4 0 -8 -13 -9 -30 0 -16 -4 -35 -9 -42 -4 -7 -9 -24 -9 -38 -1 -14 -5
-38 -9 -55 -4 -16 -8 -41 -9 -55 0 -14 -4 -27 -8 -30 -4 -3 -10 -30 -14 -60
-4 -30 -9 -57 -13 -60 -4 -3 -6 -15 -5 -27 1 -13 -3 -23 -7 -23 -5 0 -9 -5 -9
-11 0 -5 6 -7 13 -3 6 4 4 -1 -5 -12 -9 -11 -16 -28 -14 -39 4 -26 -14 -55
-34 -55 -13 0 -13 1 0 10 10 6 11 10 3 10 -8 0 -13 13 -13 30 0 17 -5 30 -11
30 -6 0 -8 8 -4 19 3 10 -1 24 -10 31 -12 10 -13 16 -4 26 7 9 8 14 1 14 -9 0
-21 40 -25 87 -1 11 -5 19 -9 16 -5 -2 -9 2 -9 9 -2 25 -5 33 -22 72 -9 21
-15 42 -12 46 3 5 0 10 -5 12 -6 2 -12 11 -13 19 -2 9 -9 23 -18 31 -17 17
-69 30 -69 17 0 -5 -3 -8 -7 -8 -27 4 -30 -5 -26 -82 1 -44 8 -89 14 -101 6
-11 7 -18 2 -15 -6 4 -5 -9 1 -28 6 -19 15 -35 21 -35 5 0 3 -5 -5 -11 -11 -8
-12 -12 -2 -16 6 -2 12 -18 12 -33 0 -16 4 -31 10 -35 5 -3 7 -12 3 -20 -3 -8
-1 -15 5 -15 5 0 9 -6 9 -12 -2 -27 16 -88 25 -88 6 0 5 -6 -2 -15 -9 -10 -9
-15 -1 -15 6 0 11 -8 11 -18 0 -10 3 -22 7 -26 8 -8 9 -13 12 -42 0 -8 5 -13
10 -10 5 3 9 0 8 -7 -1 -32 4 -48 13 -42 6 3 10 -1 10 -9 0 -9 9 -21 20 -28
11 -7 20 -18 20 -25 0 -6 9 -15 20 -18 11 -4 21 -16 22 -28 1 -12 2 -29 3 -37
0 -8 4 -20 8 -27 4 -6 3 -14 -2 -18 -6 -3 -9 -33 -8 -65 1 -33 -1 -60 -5 -60
-4 0 -4 -7 -1 -17 5 -12 3 -14 -7 -8 -10 6 -11 4 -4 -6 11 -18 12 -69 2 -75
-5 -3 -6 -10 -2 -15 9 -14 9 -93 0 -107 -4 -7 -2 -12 5 -12 9 0 9 -3 0 -14 -8
-10 -9 -16 -1 -21 7 -4 7 -12 0 -26 -8 -13 -7 -19 0 -19 7 0 8 -6 0 -19 -7
-14 -7 -22 0 -26 8 -5 7 -11 -1 -21 -9 -11 -9 -14 0 -14 8 0 9 -5 2 -18 -7
-13 -6 -23 1 -30 9 -9 9 -12 -2 -12 -11 0 -11 -3 -2 -12 7 -7 8 -17 2 -29 -7
-12 -6 -20 0 -24 8 -5 7 -11 -1 -21 -9 -11 -9 -14 0 -14 8 0 9 -5 2 -18 -7
-13 -6 -23 1 -30 8 -8 8 -12 2 -12 -6 0 -11 -7 -11 -15 0 -8 5 -15 11 -15 6 0
4 -5 -4 -10 -13 -9 -13 -11 0 -20 9 -5 10 -10 3 -10 -12 0 -11 -27 5 -77 6
-17 8 -33 6 -36 -8 -8 -8 -133 0 -145 4 -7 3 -12 -2 -12 -5 0 -8 -17 -6 -37 1
-21 4 -91 5 -156 2 -64 7 -117 12 -117 5 0 5 -6 -2 -13 -8 -10 -7 -17 2 -27 9
-10 9 -11 0 -6 -16 9 -17 -10 -3 -19 8 -5 8 -11 1 -19 -7 -9 -7 -16 1 -24 9
-9 9 -12 -1 -12 -7 0 -9 -5 -5 -11 6 -10 16 -116 15 -164 0 -10 5 -25 11 -32
7 -9 7 -13 -1 -13 -9 0 -9 -5 0 -21 9 -17 8 -20 -2 -14 -8 6 -10 4 -4 -5 8
-13 10 -31 16 -147 1 -29 5 -51 8 -49 3 2 7 -15 9 -37 4 -77 6 -87 13 -87 3 0
5 -11 4 -25 -2 -14 0 -27 5 -30 4 -3 6 -14 3 -24 -3 -10 0 -22 6 -25 5 -4 8
-13 5 -20 -3 -8 0 -17 6 -21 9 -6 9 -10 -1 -16 -10 -6 -10 -9 -2 -9 7 0 10 -7
7 -15 -4 -8 -1 -15 6 -15 10 0 10 -3 1 -14 -8 -9 -8 -16 -2 -20 5 -4 8 -15 6
-26 -2 -11 -1 -20 4 -20 4 0 7 -12 6 -28 0 -15 3 -30 8 -33 4 -3 9 -22 10 -42
1 -21 5 -37 8 -37 5 0 14 -31 20 -68 0 -4 4 -11 8 -17 5 -5 11 -23 15 -38 4
-15 10 -26 14 -23 7 4 11 -10 14 -51 1 -7 5 -13 9 -13 5 0 18 -19 30 -42 12
-24 25 -45 28 -48 4 -3 6 -12 6 -20 0 -8 4 -20 10 -27 37 -44 36 -43 23 -43
-8 0 -7 -4 3 -10 9 -5 20 -21 23 -35 4 -14 11 -25 16 -25 6 0 10 -7 10 -15 0
-8 5 -15 10 -15 6 0 10 -4 10 -10 0 -15 32 -50 41 -44 4 2 10 -5 14 -16 4 -11
9 -18 13 -16 7 4 33 -19 32 -29 -1 -20 2 -24 18 -29 9 -4 33 -20 52 -36 19
-16 40 -34 47 -40 7 -5 16 -10 20 -10 4 0 26 -14 47 -30 21 -16 43 -27 47 -24
5 3 9 0 9 -5 0 -6 17 -18 38 -27 20 -9 48 -21 62 -26 14 -6 29 -10 34 -9 4 1
14 -4 22 -10 8 -6 14 -8 14 -4 0 4 6 2 13 -4 8 -6 17 -8 20 -4 4 3 7 1 7 -6 0
-7 6 -11 13 -8 6 2 23 0 36 -5 13 -5 40 -11 60 -14 20 -3 42 -7 49 -9 6 -2 12
1 12 8 0 8 4 6 10 -3 6 -10 10 -11 10 -3 0 9 7 10 24 3 13 -5 27 -6 32 -2 4 4
4 1 0 -5 -4 -7 -4 -14 1 -14 28 -5 83 -11 111 -13 17 0 32 -4 32 -7 0 -3 7 -6
15 -6 8 0 15 4 15 9 0 5 8 5 17 0 10 -4 44 -8 76 -7 31 1 57 -2 57 -7 0 -4 11
-3 25 2 14 5 25 6 25 1 0 -10 40 -8 58 2 6 5 12 4 12 -1 0 -5 7 -9 15 -9 8 0
12 4 9 9 -3 4 0 8 5 8 6 0 11 -4 11 -8 0 -13 33 -11 49 2 11 8 13 8 7 -2 -5
-9 -1 -11 16 -8 13 3 25 5 28 6 3 2 10 1 15 0 32 -8 61 -7 71 1 8 7 14 6 19
-1 5 -8 11 -8 21 1 9 7 14 8 14 1 0 -11 18 -11 38 1 7 5 12 3 12 -4 0 -8 5 -7
17 2 15 12 16 12 8 -1 -8 -13 -7 -13 8 -1 12 9 17 10 17 2 0 -7 5 -9 13 -4 17
11 31 10 39 -2 5 -6 8 -6 8 2 0 7 7 10 15 7 9 -4 15 0 15 7 0 9 3 10 8 4 8
-12 132 -14 132 -3 0 4 13 3 30 -2 16 -5 30 -6 30 -2 0 4 66 7 148 6 81 0 153
3 160 9 8 6 12 6 12 -2 0 -7 5 -9 13 -4 21 13 50 14 59 1 6 -10 8 -10 8 -1 0
7 7 10 15 7 9 -4 15 0 15 7 0 12 2 12 9 0 6 -10 10 -10 16 -1 6 9 10 9 16 -1
5 -8 9 -9 9 -4 0 6 25 9 60 8 45 -2 59 1 53 10 -5 8 -2 8 9 -1 12 -9 18 -10
23 -2 5 8 11 8 21 -1 11 -9 14 -9 14 1 0 9 3 10 13 1 8 -6 17 -8 21 -4 12 12
36 12 36 0 0 -8 3 -8 8 -2 7 10 36 14 152 18 30 1 61 6 68 10 7 5 12 3 12 -5
0 -9 3 -9 8 -2 4 6 17 10 30 9 12 -1 22 2 22 7 0 5 5 6 10 3 6 -3 10 -1 10 5
0 6 4 9 9 6 5 -3 8 28 7 70 0 42 2 78 6 80 4 3 5 11 2 18 -8 22 -10 137 -2
142 4 3 5 11 1 19 -3 9 1 15 8 15 9 0 10 3 4 8 -14 9 -13 55 0 64 6 5 5 8 -3
8 -10 0 -10 5 -1 23 15 26 15 27 -3 38 -9 6 -9 9 -1 9 6 0 10 9 8 20 -2 11 1
20 7 20 7 0 6 5 -1 14 -9 11 -9 16 0 21 8 6 7 10 -2 16 -8 5 -9 9 -3 9 7 0 10
23 10 59 -1 33 2 57 6 55 4 -2 6 5 5 16 -1 11 -6 20 -12 20 -6 0 -7 3 0 8 9 6
12 36 16 194 1 40 5 56 13 51 6 -3 2 4 -9 17 -11 13 -15 20 -8 17 8 -5 11 3 9
28 -2 19 0 35 3 35 9 0 7 43 -3 58 -4 7 -3 12 1 12 12 0 11 104 -2 112 -7 5
-6 8 1 8 8 0 11 27 10 80 -1 47 3 80 9 80 6 0 3 5 -5 10 -12 7 -12 10 -1 10 8
0 11 6 7 16 -4 9 -1 23 5 30 6 8 7 14 2 14 -5 0 -8 16 -8 35 0 19 5 35 10 35
6 0 3 5 -5 10 -8 5 -10 10 -4 10 6 0 11 7 11 15 0 8 -5 15 -10 15 -5 0 -4 6 2
14 13 16 11 37 -4 48 -6 5 -5 8 3 8 7 0 10 5 6 11 -3 6 0 15 7 20 12 7 12 9 0
9 -11 0 -10 4 5 16 10 8 14 13 8 10 -8 -4 -11 8 -10 34 0 22 4 40 8 40 4 0 4
10 -1 23 -5 14 -5 30 0 40 7 12 6 17 -3 17 -8 0 -9 3 -2 8 13 9 13 55 0 64 -8
5 -7 8 1 8 8 0 11 16 10 45 -1 25 2 45 7 45 5 0 2 8 -5 17 -10 12 -10 14 -1 9
9 -5 11 3 8 32 -2 22 0 46 5 53 4 8 3 20 -4 28 -9 12 -9 13 1 7 6 -4 12 -2 12
3 0 6 -6 11 -12 11 -9 0 -9 3 1 9 13 8 13 12 0 27 -8 10 -9 15 -3 11 8 -4 11
11 10 48 -1 31 3 53 9 52 5 -1 9 5 7 13 -2 8 0 12 4 8 4 -4 14 -2 22 5 12 10
16 9 20 -1 3 -10 7 -10 20 0 9 7 13 8 9 2 -4 -8 14 -11 62 -11 37 0 73 -3 80
-7 6 -4 11 -3 11 3 0 6 6 8 13 6 25 -9 227 -11 227 -3 0 5 5 6 11 2 18 -11
129 -12 122 -1 -3 5 3 5 13 -1 11 -5 28 -8 39 -6 10 1 26 -3 34 -9 12 -10 13
-9 7 1 -6 10 1 12 31 10 21 -2 43 -7 49 -11 6 -3 14 -3 18 0 10 10 146 9 146
-1 0 -5 6 -3 13 3 8 6 16 9 18 7 9 -7 79 -14 75 -7 -6 9 25 8 41 -2 6 -4 14
-1 16 5 4 10 6 9 6 -1 1 -10 4 -11 15 -2 10 8 16 9 21 1 4 -7 13 -7 27 1 11 6
18 7 15 2 -8 -13 337 -13 345 1 6 8 8 8 8 -1 0 -15 80 -13 80 2 0 6 3 5 8 -1
7 -13 59 -13 78 -2 6 4 14 4 18 0 10 -10 126 -10 120 0 -3 4 2 5 11 2 22 -9
38 -41 24 -49 -6 -4 -8 -13 -5 -21 3 -8 0 -14 -7 -14 -8 0 -6 -4 3 -10 9 -6
10 -10 3 -10 -6 0 -10 -9 -8 -20 2 -11 -2 -20 -8 -20 -8 0 -8 -3 1 -9 19 -11
19 -15 3 -35 -13 -15 -13 -19 0 -27 10 -6 10 -9 2 -9 -7 0 -13 -5 -13 -11 0
-5 5 -7 10 -4 17 11 11 -7 -7 -21 -10 -7 -13 -14 -7 -14 12 0 12 -29 -1 -49
-6 -11 -4 -13 11 -8 18 7 18 7 0 -8 -11 -8 -14 -15 -8 -15 9 0 10 -5 3 -18 -7
-13 -6 -23 1 -30 9 -9 9 -12 0 -12 -7 0 -12 -5 -12 -11 0 -5 5 -7 12 -3 7 5 8
3 2 -7 -5 -8 -9 -22 -10 -31 -1 -10 -2 -19 -4 -20 -7 -10 -6 -37 2 -32 6 4 5
-2 -1 -15 -7 -11 -8 -21 -4 -21 11 0 9 -41 -1 -58 -4 -7 -3 -18 2 -25 5 -7 8
-21 5 -32 -4 -21 -12 -115 -16 -200 -2 -27 1 -60 5 -73 5 -13 4 -21 -1 -18 -5
3 -11 -1 -15 -9 -3 -8 -1 -17 4 -20 6 -4 10 -11 10 -16 0 -6 -5 -7 -11 -3 -8
5 -8 1 0 -13 7 -14 7 -23 -1 -31 -9 -9 -9 -12 1 -12 7 0 9 -5 4 -12 -8 -14
-10 -37 -14 -196 -2 -57 -7 -105 -11 -108 -4 -3 -4 -13 2 -23 6 -12 5 -22 -2
-29 -9 -9 -9 -12 1 -12 11 0 11 -3 1 -15 -10 -12 -10 -15 1 -15 10 0 10 -3 1
-12 -7 -7 -8 -17 -2 -29 6 -11 6 -20 1 -24 -5 -3 -10 -18 -10 -33 0 -15 -2
-53 -4 -84 -4 -42 -2 -56 7 -52 6 3 3 -1 -6 -9 -13 -10 -15 -16 -6 -25 9 -9 9
-12 0 -12 -9 0 -10 -5 -3 -19 6 -10 7 -21 4 -25 -12 -11 -11 -50 1 -65 9 -12
8 -13 -3 -6 -11 6 -13 2 -9 -19 3 -14 3 -28 -1 -30 -3 -2 -6 -24 -5 -48 0 -23
-4 -46 -10 -50 -7 -5 -8 -11 -1 -15 14 -11 18 -43 5 -43 -6 0 -8 -5 -3 -12 10
-17 13 -38 4 -38 -4 0 -7 -9 -7 -20 0 -11 4 -20 9 -20 4 0 5 -5 1 -12 -12 -20
-12 -288 0 -288 8 0 8 -2 0 -8 -6 -4 -11 -14 -11 -23 0 -16 43 -20 227 -23 41
0 81 -5 89 -10 9 -6 12 -5 7 2 -8 14 116 11 126 -3 5 -6 8 -6 8 2 0 14 167 13
189 -1 9 -6 12 -5 7 2 -5 8 19 11 79 10 46 -1 88 1 91 5 4 3 14 2 23 -3 17 -9
67 -7 77 3 3 3 18 2 33 -3 15 -4 35 -3 44 2 12 6 17 5 17 -4 0 -8 3 -9 8 -3 4
6 27 10 52 10 25 0 48 -4 52 -10 5 -7 8 -7 8 0 0 10 130 11 156 1 8 -3 14 -2
14 2 0 8 154 7 176 -2 8 -3 14 -1 14 4 0 5 7 7 15 4 9 -4 15 0 15 7 0 9 3 10
8 4 11 -15 85 -17 75 -2 -5 9 -3 9 8 1 14 -12 89 -15 89 -4 0 9 32 6 48 -4 7
-4 20 -2 29 6 14 11 16 11 8 -2 -8 -13 -7 -13 8 -1 9 7 17 9 17 4 0 -5 7 -10
15 -10 8 0 15 4 15 9 0 5 6 6 13 1 17 -11 41 -10 49 2 5 6 8 5 8 -3 0 -9 5
-10 18 -3 13 7 23 6 30 -1 7 -7 12 -8 12 -2 0 5 15 9 33 9 17 -1 38 3 46 9 11
8 13 8 7 -1 -4 -7 -3 -13 3 -13 5 0 13 5 16 10 4 6 12 7 18 3 16 -10 107 -10
107 0 0 4 9 3 20 -3 14 -8 20 -8 20 0 0 8 6 8 20 0 11 -6 20 -7 20 -3 0 4 33
8 73 7 39 0 80 3 91 9 14 7 17 6 11 -4 -6 -9 -3 -10 11 -4 10 4 40 8 67 9 26
0 47 5 47 11 0 5 5 3 10 -5 7 -11 10 -11 10 -2 0 7 5 10 11 6 6 -3 15 0 20 7
7 11 9 11 9 1 0 -8 5 -10 12 -6 20 13 148 12 141 0 -5 -7 -2 -7 8 0 14 11 31
14 76 14 12 0 25 5 28 10 4 7 13 7 25 0 11 -6 21 -6 24 -1 4 5 17 8 31 6 14
-1 28 1 31 6 2 4 11 6 19 2 9 -3 23 1 32 8 14 12 16 12 8 -1 -8 -13 -6 -13 8
-2 9 8 21 11 27 7 5 -3 10 -1 10 5 0 6 4 9 9 5 12 -7 102 15 97 24 -2 3 6 7
17 7 50 3 75 9 71 16 -3 4 6 8 20 8 14 0 26 5 26 11 0 5 5 7 10 4 6 -3 10 -1
10 6 0 7 3 10 6 6 14 -13 112 55 107 74 -2 5 6 13 17 19 11 6 18 15 15 21 -4
5 -1 9 5 9 6 0 8 5 5 10 -3 6 -1 10 5 10 6 0 9 4 6 9 -3 5 1 14 9 21 8 7 13
16 10 20 -3 4 3 11 12 14 15 6 15 8 3 16 -13 8 -12 10 3 10 10 0 16 4 12 9 -3
5 0 13 6 16 5 4 8 13 5 20 -2 7 2 16 10 19 9 3 13 10 10 14 -3 5 3 24 13 43
10 19 19 37 20 42 4 31 15 57 22 57 5 0 7 11 5 25 -3 14 -1 23 5 20 5 -4 9 -3
10 2 1 8 8 48 14 73 2 8 4 19 4 23 1 5 7 5 14 1 8 -5 8 -2 -2 9 -10 13 -10 17
-1 17 7 0 10 7 7 15 -4 8 -1 17 4 21 6 3 9 15 6 25 -3 11 -1 17 4 14 5 -3 12
12 15 35 4 22 11 40 16 40 5 0 7 4 4 8 -3 5 1 20 9 35 10 20 11 27 2 27 -9 0
-9 2 0 8 7 4 11 18 8 30 -2 13 0 20 4 17 5 -2 11 4 14 15 3 10 0 21 -7 24 -8
3 -7 5 1 5 7 1 10 8 7 16 -4 8 -2 15 4 15 5 0 8 12 6 27 -1 15 1 32 6 38 5 6
7 23 6 38 -2 15 1 27 7 27 5 0 5 5 -2 13 -6 8 -8 16 -5 20 6 6 16 78 17 122 0
17 5 33 11 37 7 5 6 8 -4 8 -11 1 -10 4 4 15 11 8 15 15 10 15 -6 0 -11 7 -11
15 0 8 5 15 11 15 6 0 5 4 -3 9 -12 8 -12 12 -2 25 10 11 10 16 2 16 -9 0 -9
5 0 21 9 17 8 20 -3 13 -11 -6 -11 -5 1 9 10 13 10 17 1 17 -9 0 -9 4 -3 12 6
7 10 32 10 56 0 23 3 45 6 49 4 3 1 13 -6 21 -9 13 -9 14 1 8 8 -5 11 -1 8 16
-2 13 1 29 7 36 8 10 7 16 -2 22 -9 5 -10 10 -3 14 6 4 10 24 9 46 -2 22 0 40
3 40 3 0 4 15 4 32 -1 18 3 43 7 56 6 14 5 22 -2 22 -7 0 -6 6 2 17 14 17 14
20 -3 40 -5 7 -7 16 -4 22 3 5 0 12 -6 14 -10 4 -10 8 1 15 9 7 10 12 2 16 -6
4 -8 14 -3 24 9 22 9 53 -2 71 -6 9 -5 12 1 8 7 -4 10 11 9 43 -1 28 2 50 5
50 9 0 5 52 -5 69 -6 10 -5 12 2 7 7 -4 12 -1 12 8 0 8 -5 18 -10 21 -7 4 -7
11 -2 18 5 7 9 67 8 135 0 67 2 122 6 122 4 0 3 12 -1 28 -5 15 -6 37 -5 50 2
13 0 31 -6 41 -6 12 -5 22 2 29 9 9 9 12 -1 12 -11 0 -11 3 -1 15 9 11 9 15 1
15 -9 0 -9 5 -1 20 8 15 8 20 -2 20 -9 0 -9 3 0 12 7 7 8 17 2 29 -7 12 -6 20
0 24 6 4 7 12 3 18 -11 19 -11 47 1 47 8 0 8 2 0 8 -13 9 -13 72 1 72 5 0 3 5
-5 10 -8 5 -11 10 -6 10 5 0 2 8 -5 17 -8 9 -9 14 -3 10 7 -4 15 0 18 9 3 8 2
12 -4 9 -11 -7 -9 23 3 43 5 7 3 12 -3 12 -7 0 -8 6 0 19 6 13 7 22 0 26 -6 4
-6 15 0 31 7 16 7 23 0 19 -6 -4 -8 6 -6 24 2 17 0 31 -4 31 -5 0 -6 10 -2 22
3 11 1 19 -4 16 -5 -4 -9 9 -9 28 0 26 4 34 18 34 9 0 17 -3 17 -7 0 -12 51
-33 78 -33 13 0 21 -4 18 -8 -2 -4 4 -8 14 -8 10 0 16 4 14 8 -3 4 -1 8 5 8 5
0 13 -5 16 -10 4 -6 13 -7 23 -2 9 5 26 8 37 8 11 -1 29 8 40 20 11 11 29 23
38 27 11 4 15 12 11 19 -5 7 -2 9 8 5 12 -4 14 -1 10 15 -3 14 -1 19 6 14 8
-4 12 0 12 11 0 14 7 19 25 19 14 0 25 -6 25 -13 0 -7 5 -13 10 -13 6 0 10 -8
10 -19 0 -22 23 -44 36 -33 5 4 6 3 2 -2 -10 -12 11 -38 25 -29 5 3 7 1 3 -5
-3 -6 -2 -13 4 -17 5 -3 10 -1 10 5 0 7 5 8 13 3 15 -10 78 -13 72 -3 -2 4 9
6 25 5 16 -1 27 2 25 6 -3 4 2 10 11 13 9 3 14 12 11 19 -2 6 -1 21 3 32 7 20
-9 45 -29 45 -6 0 -11 5 -11 11 0 5 -5 7 -10 4 -6 -3 -13 1 -16 10 -4 9 -13
14 -20 11 -8 -3 -13 0 -11 7 1 7 -4 11 -12 9 -12 -3 -12 0 -1 12 7 9 8 16 3
16 -5 0 -10 16 -11 35 -2 19 2 35 8 35 5 0 10 7 10 15 0 8 4 15 10 15 5 0 7 7
4 15 -4 8 -2 15 3 15 5 0 10 6 10 13 1 23 8 42 20 52 6 5 13 21 15 35 2 14 9
33 17 42 17 20 21 68 6 68 -6 0 -7 3 0 8 19 14 14 30 -13 41 -36 15 -102 20
-102 8 0 -5 -8 -3 -17 4 -11 10 -14 10 -9 2 4 -7 2 -13 -3 -13 -6 0 -11 -6
-11 -13 0 -8 -11 -27 -25 -43 -13 -15 -23 -30 -21 -32 2 -2 -7 -15 -20 -29
-13 -14 -24 -30 -24 -35 0 -13 -40 -63 -40 -52 -1 5 -9 -6 -18 -25 -9 -19 -21
-33 -26 -32 -5 1 -14 -8 -21 -21 -6 -13 -18 -21 -26 -20 -8 2 -11 1 -7 -3 9
-10 -33 -55 -45 -48 -6 4 -8 0 -4 -10 4 -11 1 -17 -9 -17 -9 0 -12 -5 -8 -12
4 -7 4 -10 -1 -6 -4 4 -14 3 -22 -3 -7 -6 -13 -8 -13 -5 0 4 -9 2 -20 -4 -16
-9 -20 -8 -20 5 0 8 -6 15 -12 15 -9 0 -13 17 -13 50 0 28 4 50 9 50 5 0 6 3
3 7 -4 3 -2 12 4 20 8 9 8 13 1 13 -7 0 -6 13 3 40 8 22 12 40 8 40 -3 0 1 8
8 17 12 15 12 16 -1 8 -12 -7 -13 -6 -3 7 7 8 10 18 6 21 -3 4 -1 7 6 7 7 0
10 4 6 9 -3 5 -1 12 5 16 5 3 10 13 10 22 0 9 7 25 17 35 13 14 13 18 2 18
-10 1 -9 3 3 11 21 12 19 76 -4 93 -8 6 -20 20 -26 31 -6 11 -12 14 -12 7 0
-7 -5 -10 -10 -7 -6 4 -7 12 -3 18 4 7 0 6 -10 -2 -13 -10 -17 -10 -17 -1 0 9
-4 9 -17 -1 -14 -12 -15 -12 -9 -1 7 11 4 12 -12 3 -16 -8 -38 -56 -32 -69 1
-2 -7 -10 -17 -19 -10 -8 -12 -12 -5 -8 16 8 15 -6 -3 -31 -8 -12 -12 -24 -9
-27 3 -3 1 -14 -5 -25 -6 -11 -12 -34 -13 -51 -1 -17 -6 -31 -10 -31 -4 0 -8
-10 -8 -23 0 -13 -3 -27 -7 -31 -7 -6 -13 -29 -15 -53 -1 -7 -4 -13 -7 -13
-10 0 -37 20 -27 20 5 0 3 7 -4 15 -10 12 -10 15 1 15 9 1 8 5 -5 15 -11 8
-14 15 -8 15 7 0 12 7 12 15 0 8 -6 15 -12 15 -9 0 -8 4 2 10 8 5 10 10 5 10
-6 0 -12 12 -13 26 -1 14 -8 51 -16 82 -8 30 -13 59 -10 64 3 4 0 8 -7 8 -7 0
-9 3 -6 7 4 3 2 12 -4 20 -7 7 -7 13 -2 13 6 0 7 18 3 45 -5 32 -3 45 7 49 7
3 13 0 13 -7 0 -7 5 -4 11 6 9 15 7 22 -10 33 -11 8 -23 30 -27 49 -3 20 -10
38 -15 41 -5 3 -7 9 -4 14 3 5 1 11 -4 15 -6 3 -8 12 -4 20 3 9 1 21 -5 28 -6
6 -9 28 -8 47 2 22 -4 42 -16 54 -24 26 -23 65 3 92 l21 22 -21 21 c-20 20
-25 37 -22 73 1 9 -7 34 -17 55 -11 21 -20 41 -21 46 -1 4 -1 8 -2 10 -1 1 -3
13 -4 27 -9 62 -17 98 -32 135 -18 46 -82 232 -87 255 -8 32 -20 127 -22 170
-1 25 -2 45 -4 45 -1 0 -3 20 -4 45 -2 25 -6 68 -10 95 -3 28 -8 73 -11 100
-6 60 -13 96 -19 102 -3 3 -1 16 4 28 6 16 5 25 -3 29 -9 3 -9 5 1 5 10 1 10
4 0 15 -7 8 -16 12 -19 10 -3 -1 -11 13 -18 32 -7 18 -17 34 -22 34 -5 0 -9 9
-9 19 0 11 -4 21 -9 23 -5 2 -11 14 -13 28 -1 14 -11 34 -20 44 -10 11 -21 34
-24 52 -3 18 -12 38 -19 44 -8 6 -11 18 -8 26 3 7 -2 17 -11 20 -9 3 -16 17
-16 31 0 13 -4 21 -10 18 -5 -3 -10 3 -10 14 0 12 -4 21 -10 21 -5 0 -10 8
-10 19 0 15 -66 103 -93 122 -12 9 3 38 24 44 10 4 19 11 19 17 0 6 3 9 6 5 3
-3 25 3 49 13 24 10 46 16 49 13 3 -4 6 -1 6 4 0 6 8 10 18 8 9 -1 23 3 31 9
8 6 16 10 18 8 2 -2 20 2 40 7 20 6 40 8 45 5 4 -3 8 -1 8 4 0 5 6 9 13 9 26
1 81 14 98 24 11 5 19 8 19 5 0 -2 28 4 62 14 34 11 65 17 70 14 4 -3 8 -1 8
4 0 4 27 13 60 18 48 8 60 7 61 -3 2 -22 1 -62 -1 -70 -6 -23 -4 -101 2 -121
5 -13 5 -21 0 -19 -4 3 -7 -57 -7 -134 0 -76 3 -139 7 -139 8 0 3 -34 -8 -52
-4 -7 -3 -8 4 -4 7 4 12 1 12 -9 0 -10 -5 -13 -12 -9 -7 4 -4 -3 7 -15 16 -19
17 -24 5 -31 -9 -6 -10 -10 -3 -10 6 0 10 -9 8 -20 -2 -11 0 -20 5 -20 5 0 9
-8 9 -17 0 -10 1 -25 4 -33 2 -8 7 -27 12 -42 4 -16 11 -28 16 -28 5 0 8 -5 6
-11 -1 -7 13 -21 32 -32 23 -14 32 -16 26 -6 -7 11 -6 12 6 3 16 -12 29 -12
48 0 10 7 12 6 6 -3 -6 -10 -3 -11 11 -2 24 13 84 77 64 67 -9 -5 -8 -2 2 7
10 8 15 17 11 20 -3 4 -1 7 5 7 7 0 12 9 12 19 0 11 6 26 13 33 7 8 12 38 11
75 -2 73 -9 97 -26 87 -9 -5 -9 -3 1 9 9 12 10 17 2 17 -7 0 -9 5 -6 10 3 6
-1 10 -10 10 -9 0 -14 4 -11 8 3 5 -4 15 -15 22 -10 8 -19 23 -19 33 0 11 -5
15 -11 11 -8 -4 -8 0 0 15 9 16 9 21 -1 21 -8 0 -9 3 -3 8 6 4 11 13 13 21 9
44 20 218 21 359 1 65 3 74 21 79 11 3 20 9 20 12 0 4 6 8 13 9 6 0 21 3 32 6
11 2 24 5 28 5 5 1 6 5 3 9 -3 4 8 7 25 6 16 -1 29 1 29 5 0 4 10 8 23 9 25 2
61 9 65 12 1 2 7 4 12 5 6 1 13 4 18 5 4 1 11 2 16 1 4 -1 14 4 22 10 8 6 14
8 14 4 0 -4 12 0 26 10 15 9 23 12 20 6 -5 -7 -1 -9 8 -5 9 3 16 10 16 16 0 5
4 7 10 3 12 -8 100 34 107 51 3 8 9 12 13 9 4 -2 16 7 26 22 11 14 27 34 37
45 9 10 17 23 17 28 0 6 6 10 13 10 8 0 7 4 -3 10 -8 5 -10 10 -3 10 6 0 10 6
9 13 -4 25 -27 57 -41 57 -8 0 -14 6 -12 13 1 6 -5 13 -13 13 -8 1 -17 3 -20
4 -22 8 -65 10 -195 11 -163 0 -242 -4 -252 -14 -3 -4 -19 -7 -35 -7 -31 0
-29 -6 -32 110 -1 30 -5 61 -9 68 -5 7 -3 12 3 12 6 0 8 5 4 11 -4 7 -9 53
-11 103 -2 50 -6 92 -8 95 -3 2 1 11 8 19 10 13 9 14 -2 7 -11 -6 -13 -3 -9
13 4 12 3 22 -1 22 -11 0 -7 54 4 62 6 5 6 8 -1 8 -6 0 -10 12 -10 28 1 15 -3
33 -8 40 -7 9 -5 16 5 23 8 5 9 9 2 9 -6 0 -9 9 -6 21 4 12 0 25 -8 30 -8 5
-9 9 -4 9 6 0 11 9 11 20 0 11 -3 20 -6 20 -9 0 -5 64 5 79 5 9 4 12 -2 8 -6
-4 -11 11 -12 36 -5 97 -9 152 -11 152 -1 0 -7 47 -13 110 -2 19 -7 38 -10 42
-4 3 -7 21 -7 40 0 20 -5 33 -12 33 -10 0 -9 3 1 9 9 6 10 11 2 15 -6 4 -11
18 -11 32 0 13 -5 24 -11 24 -5 0 -7 4 -4 10 3 5 -5 32 -19 60 -14 27 -23 50
-20 50 3 0 -7 12 -21 27 -14 15 -25 33 -25 39 0 6 -16 15 -35 21 -20 6 -35 7
-35 2 0 -5 -3 -8 -8 -6 -9 3 -52 -40 -52 -53 0 -9 -15 -14 -33 -11 -5 1 -6 -3
-2 -8 7 -13 -56 -100 -73 -100 -7 -1 -10 -5 -7 -11 3 -5 1 -10 -5 -10 -7 0
-10 -7 -6 -15 5 -13 -4 -19 -24 -17 -3 0 -7 -9 -7 -20 -1 -12 -8 -25 -15 -29
-7 -5 -13 -14 -13 -21 -1 -7 -7 -12 -14 -10 -7 1 -9 -2 -5 -9 3 -6 3 -14 -2
-18 -5 -3 -24 -35 -43 -71 -19 -36 -39 -68 -45 -72 -7 -5 -7 -8 2 -8 7 0 4 -8
-8 -20 -11 -11 -22 -31 -26 -45 -3 -14 -10 -25 -15 -25 -5 0 -9 -9 -9 -20 0
-11 -3 -20 -8 -20 -4 0 -15 -17 -25 -37 -9 -21 -31 -60 -47 -88 -16 -27 -37
-65 -46 -82 -9 -18 -20 -33 -25 -33 -5 0 -9 -6 -9 -14 0 -7 -9 -25 -20 -38
-10 -14 -17 -28 -13 -31 3 -4 -2 -9 -11 -13 -9 -3 -16 -10 -16 -15 0 -14 -56
-100 -61 -95 -3 3 -6 -5 -6 -17 -1 -12 -10 -27 -19 -34 -10 -7 -14 -13 -10
-13 4 0 0 -7 -8 -16 -9 -8 -33 -40 -53 -72 -21 -31 -55 -74 -76 -96 -22 -23
-41 -49 -43 -60 -2 -10 -1 -16 2 -13 3 3 14 -3 24 -13 44 -44 59 -106 32 -127
-12 -10 -12 -13 -2 -13 9 0 8 -6 -6 -22 -10 -12 -13 -18 -6 -14 7 4 4 -8 -8
-28 -11 -20 -17 -36 -15 -36 3 0 -1 -10 -10 -23 -8 -13 -12 -27 -8 -30 3 -4 1
-7 -5 -7 -7 0 -18 -15 -26 -33 -7 -19 -25 -43 -39 -54 -15 -11 -24 -22 -22
-25 2 -2 -5 -4 -15 -5 -12 -1 -20 5 -20 13 0 8 -4 13 -9 10 -5 -4 -7 2 -4 12
2 11 -2 25 -10 33 -7 8 -12 20 -9 27 2 8 -2 10 -15 5 -16 -6 -17 -5 -3 12 11
13 12 19 3 22 -7 2 -10 10 -7 17 3 8 -1 20 -8 27 -7 8 -14 21 -16 29 -5 30
-25 59 -36 53 -6 -4 -5 0 2 9 8 10 9 17 3 20 -6 1 -12 14 -15 28 -2 14 -9 24
-16 22 -6 -1 -14 7 -17 18 -3 11 -9 17 -14 14 -5 -3 -9 1 -9 10 0 8 -4 16 -9
18 -13 5 -121 170 -121 185 0 7 -4 13 -10 13 -5 0 -9 3 -9 8 3 18 -1 45 -7 40
-8 -9 -60 45 -56 58 2 6 -4 18 -12 27 -12 12 -13 17 -3 20 7 3 4 6 -6 6 -10 1
-15 5 -12 11 8 13 -19 52 -29 43 -4 -4 -4 0 0 10 4 11 0 19 -11 23 -9 4 -14
13 -11 21 4 9 2 11 -6 7 -8 -5 -9 -1 -4 12 4 10 4 15 0 12 -9 -10 -34 17 -34
37 0 9 -9 19 -21 22 -16 4 -17 8 -7 14 9 6 6 9 -12 9 -18 0 -21 3 -11 9 11 7
9 10 -8 16 -11 3 -21 12 -21 19 0 17 -46 56 -68 56 -13 0 -14 2 -3 9 10 6 5
12 -17 22 -17 7 -28 18 -25 23 4 5 -1 7 -10 3 -11 -4 -17 -1 -17 9 0 8 -4 12
-10 9 -5 -3 -10 1 -10 11 0 14 -2 15 -17 3 -10 -9 -14 -9 -10 -2 5 7 -1 21
-12 32 -11 11 -17 22 -14 25 4 3 -2 15 -12 26 -10 11 -14 20 -10 20 5 0 1 6
-8 13 -9 6 -17 18 -19 26 -2 8 -11 23 -21 33 -10 10 -15 23 -12 29 4 5 1 8 -7
7 -7 -2 -14 7 -16 20 -2 12 -10 22 -19 22 -9 0 -14 3 -10 6 3 4 -1 13 -9 21
-8 8 -12 19 -9 24 4 5 -2 9 -11 9 -10 0 -14 3 -11 7 4 3 -1 12 -11 20 -11 10
-12 12 -2 8 10 -4 9 -2 -2 8 -10 8 -18 19 -18 26 0 6 -6 11 -12 11 -9 0 -8 4
2 10 13 8 13 10 -2 10 -9 0 -20 9 -23 20 -3 11 -11 20 -16 20 -6 0 -7 5 -4 10
3 6 0 10 -8 10 -8 0 -14 8 -13 18 0 9 -5 16 -12 14 -6 -1 -11 1 -10 5 2 14
-14 43 -24 43 -5 0 -16 7 -24 15 -9 8 -13 15 -9 15 4 0 -7 11 -23 25 -17 14
-35 25 -42 25 -6 0 -8 5 -4 12 5 8 2 9 -9 5 -10 -4 -24 2 -36 14 -10 11 -27
22 -37 24 -11 1 -18 8 -16 15 1 6 -2 9 -7 6 -5 -4 -16 0 -24 8 -8 8 -17 12
-21 9 -3 -4 -6 -1 -6 6 0 7 -4 9 -10 6 -5 -3 -10 -1 -10 5 0 6 -4 8 -10 5 -5
-3 -10 1 -10 9 0 14 -24 22 -52 17 -5 0 -8 5 -8 13 0 9 -7 12 -19 9 -10 -3
-22 0 -25 6 -4 6 -18 11 -32 11 -13 0 -24 5 -24 11 0 8 -6 7 -17 -2 -9 -8 -14
-9 -10 -3 4 7 0 15 -9 18 -10 4 -13 2 -8 -7 6 -9 5 -9 -8 0 -8 7 -18 10 -21 6
-4 -3 -7 -1 -7 6 0 7 -8 11 -18 9 -11 -2 -27 3 -36 11 -14 12 -19 12 -25 2 -6
-10 -10 -9 -15 4 -3 9 -10 13 -16 10 -5 -3 -10 -2 -10 4 0 6 -6 8 -14 5 -7 -3
-20 2 -29 10 -8 8 -17 12 -21 9 -3 -3 -12 0 -20 6 -8 7 -21 9 -27 5 -8 -4 -9
-3 -5 4 6 11 -18 17 -46 13 -4 0 -4 7 -1 16 4 10 2 14 -4 10 -5 -3 -26 2 -45
13 -20 10 -39 16 -42 13 -3 -4 -6 -2 -6 4 0 13 -49 35 -61 27 -5 -3 -8 0 -7 7
2 7 -2 13 -9 14 -6 0 -15 3 -19 8 -4 4 -16 7 -26 7 -10 0 -18 4 -18 9 0 5 -13
8 -29 7 -17 -1 -28 1 -25 5 2 4 0 10 -5 13 -5 4 -13 2 -16 -4 -5 -8 -11 -7
-21 1 -7 6 -21 9 -29 5 -8 -3 -15 -1 -15 5 0 6 -7 8 -15 5 -9 -3 -18 1 -21 9
-3 7 -12 11 -20 8 -8 -3 -14 -1 -14 4 0 5 -12 10 -27 11 -15 1 -30 7 -34 13
-4 7 -12 8 -18 5 -6 -4 -11 -2 -11 4 0 7 -6 10 -12 8 -7 -3 -24 1 -37 8 -14 7
-28 11 -33 8 -4 -3 -8 -1 -8 3 0 8 -15 12 -57 15 -7 1 -10 5 -7 10 3 4 -6 8
-20 8 -14 0 -27 4 -30 9 -3 4 -27 14 -53 22 -27 7 -63 22 -82 33 -20 11 -31
14 -27 7 6 -9 0 -8 -16 3 -14 9 -28 13 -32 9 -4 -5 -6 -1 -4 7 2 10 -5 15 -25
15 -16 1 -32 7 -37 15 -6 8 -10 11 -10 6 0 -5 -8 -2 -18 7 -10 10 -23 14 -27
10 -5 -5 -3 0 4 10 8 9 9 17 3 17 -6 0 -9 21 -9 50 2 38 -1 50 -13 50 -9 0
-11 3 -5 8 6 4 11 12 12 18 3 14 -35 26 -43 13 -3 -5 -14 -9 -25 -9 -11 0 -17
5 -14 10 3 6 2 10 -4 10 -5 0 -13 -4 -16 -10 -9 -15 -27 -12 -19 3 4 6 -1 4
-12 -5 -13 -11 -24 -14 -33 -8 -8 4 -23 7 -33 5 -11 -3 -18 2 -19 13 0 14 -2
13 -9 -3 -5 -11 -9 -16 -9 -11 -1 5 -8 3 -16 -4 -12 -10 -14 -8 -10 9 2 13 -1
18 -9 15 -9 -3 -12 4 -12 23 2 21 8 29 24 31 13 2 22 -2 22 -9 0 -7 3 -9 7 -6
3 4 12 2 19 -4 8 -6 21 -9 29 -5 8 3 15 1 15 -5 0 -6 7 -6 20 1 11 6 20 8 20
4 0 -3 6 -1 13 5 8 6 17 8 21 4 4 -4 11 -1 16 7 7 11 10 12 10 2 0 -10 5 -9
17 3 20 20 24 65 6 65 -7 0 -13 5 -13 11 0 5 -5 7 -10 4 -6 -4 -8 -10 -5 -15
3 -4 -3 -6 -14 -3 -10 3 -22 0 -25 -6 -5 -7 -15 -7 -33 0 -15 5 -32 8 -39 5
-8 -3 -16 0 -20 6 -5 7 -12 5 -22 -8 -13 -16 -14 -17 -9 -1 7 19 -9 24 -16 5
-3 -8 -6 -6 -6 5 -1 9 -5 17 -9 17 -4 0 -8 11 -8 25 0 14 4 25 8 25 4 0 7 5 6
11 -2 6 7 15 20 20 14 5 22 5 22 -2 0 -6 5 -7 10 -4 6 4 10 -5 10 -19 0 -14 5
-26 12 -26 6 0 3 -7 -8 -16 -18 -15 -18 -15 3 -5 12 6 30 8 40 4 17 -7 17 -6
1 11 -19 19 -22 27 -10 25 15 -2 52 14 52 22 0 5 5 9 12 9 15 0 69 61 62 71
-3 5 -1 9 3 9 5 0 9 9 10 20 1 11 -2 18 -8 15 -5 -4 -9 -1 -9 4 0 6 4 11 8 11
5 0 9 7 9 15 0 8 -4 12 -9 9 -4 -3 -8 2 -8 10 0 9 -4 16 -8 16 -5 0 -9 7 -10
15 -1 8 -3 22 -4 30 -1 8 -4 13 -7 11 -3 -2 -16 7 -29 20 -12 13 -20 24 -16
24 3 0 1 7 -6 15 -7 8 -16 13 -20 10 -7 -4 -5 62 4 110 3 13 -2 29 -10 36 -11
9 -14 8 -14 -5z m-51 -157 c5 7 12 2 19 -14 8 -18 8 -25 1 -25 -7 0 -6 -6 2
-17 10 -11 10 -14 2 -9 -7 4 -13 3 -13 -2 0 -19 -31 -22 -37 -4 -4 9 -11 21
-17 25 -8 6 -7 10 1 13 7 3 9 12 6 21 -4 11 -2 14 5 9 7 -4 12 -1 13 6 0 10 2
10 6 -1 4 -9 7 -10 12 -2z m157 -165 c-3 -8 -1 -16 5 -19 5 -4 7 -11 3 -16 -3
-5 -9 -7 -14 -4 -5 3 -15 -1 -23 -10 -13 -12 -16 -13 -21 0 -3 8 -1 17 4 20 6
4 10 12 10 18 0 8 -3 8 -8 2 -11 -16 -47 -41 -39 -28 4 6 4 13 0 16 -5 2 -2 2
6 0 8 -2 11 2 8 10 -4 11 2 13 24 11 17 -2 28 0 25 4 -3 5 2 9 10 9 8 0 13 -6
10 -13z m4079 -2066 c4 -18 9 -44 11 -58 8 -48 10 -55 17 -67 5 -8 3 -13 -3
-13 -6 0 -8 -5 -5 -11 9 -14 15 -74 18 -171 1 -43 5 -78 8 -78 3 0 6 -26 7
-57 0 -32 1 -80 2 -108 1 -74 -7 -151 -20 -175 -6 -11 -9 -20 -6 -20 3 0 0
-13 -5 -30 -6 -16 -15 -27 -20 -24 -5 3 -9 1 -9 -3 0 -5 -24 -9 -52 -8 -29 0
-65 -3 -80 -7 -18 -4 -28 -3 -28 4 0 7 -4 7 -12 1 -7 -5 -42 -9 -78 -9 -65 1
-78 10 -61 41 3 6 6 15 6 20 1 6 6 9 12 8 5 -1 9 9 7 22 -1 14 2 25 7 25 5 0
8 3 7 8 0 4 2 15 5 25 4 9 10 25 14 35 3 9 7 19 8 22 3 12 47 146 53 160 3 8
6 23 7 32 1 10 8 24 15 33 7 8 9 15 5 15 -4 0 0 11 9 25 12 18 13 25 4 25 -10
0 -10 2 0 9 8 5 15 20 15 35 1 14 8 28 14 31 7 2 10 11 7 20 -3 8 -1 15 5 15
6 0 11 9 11 21 0 23 18 60 34 71 7 5 6 8 -3 8 -10 0 -11 3 -2 13 6 8 8 17 4
20 -3 4 -1 7 5 7 6 0 9 7 6 15 -4 8 -2 15 3 15 5 0 10 11 11 25 3 38 6 49 17
57 17 13 22 9 30 -24z m-8925 -3268 c0 -5 -5 -10 -11 -10 -5 0 -7 5 -4 10 3 6
8 10 11 10 2 0 4 -4 4 -10z"/>
<path d="M13885 7680 c-3 -6 -15 -10 -25 -10 -12 0 -26 -13 -36 -32 -9 -18
-23 -38 -30 -46 -8 -7 -12 -18 -8 -23 3 -5 -2 -12 -10 -15 -9 -3 -13 -10 -10
-15 3 -5 0 -9 -6 -9 -6 0 -8 -4 -5 -10 3 -5 2 -10 -4 -10 -5 0 -8 -8 -6 -17 2
-10 4 -25 4 -33 1 -12 3 -13 10 -1 7 11 9 11 14 0 4 -10 6 -10 6 -1 1 18 31
15 31 -4 0 -9 -8 -23 -17 -30 -17 -13 -17 -14 1 -7 19 6 19 6 -1 -23 -11 -16
-21 -36 -21 -44 -1 -8 -2 -39 -3 -67 -2 -29 -7 -53 -13 -53 -6 0 -5 -4 2 -9 8
-4 13 -11 13 -15 -3 -23 0 -48 5 -43 4 4 14 -2 23 -12 37 -41 114 -26 123 25
2 10 10 24 18 31 8 7 12 13 8 13 -4 0 -3 12 3 28 6 15 13 38 14 50 3 19 0 23
-16 19 -10 -3 -19 -1 -19 4 0 5 -7 9 -15 9 -20 0 -11 38 22 97 16 29 20 44 12
49 -8 5 -6 10 5 16 10 5 13 14 9 21 -4 7 -9 28 -10 47 -2 36 -5 51 -16 85 -8
25 -44 48 -52 35z"/>
<path d="M320 7662 c0 -7 -4 -11 -9 -7 -5 3 -12 1 -16 -5 -4 -6 -11 -8 -16 -5
-5 4 -9 0 -9 -8 0 -7 -12 -24 -26 -38 -14 -13 -30 -34 -35 -47 -5 -13 -13 -21
-18 -18 -4 3 -8 -4 -7 -17 1 -15 -4 -21 -14 -19 -11 3 -12 0 -4 -8 6 -6 27
-14 45 -17 35 -5 49 -17 44 -37 -10 -39 -19 -56 -28 -56 -6 0 -7 -3 -4 -7 4
-3 3 -11 -2 -17 -15 -18 -20 -83 -7 -96 8 -8 6 -9 -9 -4 -16 6 -18 5 -9 -7 6
-8 11 -25 12 -38 0 -13 16 -39 34 -57 26 -25 37 -30 50 -23 10 5 18 7 18 4 0
-3 6 0 14 7 8 7 11 18 8 23 -3 6 -2 7 3 3 10 -10 37 11 29 23 -3 5 3 6 12 2
14 -5 16 -2 12 15 -4 15 -2 19 8 15 10 -4 12 0 8 11 -4 9 -1 16 6 16 7 0 10 8
7 20 -3 11 -2 18 3 15 4 -3 10 2 14 10 6 16 2 20 -37 29 -19 4 -26 3 -22 -4 3
-5 1 -10 -6 -10 -7 0 -21 -7 -31 -17 -25 -22 -34 -9 -14 21 19 30 21 40 4 30
-7 -4 -8 -3 -4 4 4 7 15 12 24 12 15 0 15 2 2 10 -9 6 -11 10 -3 10 7 0 10 6
7 14 -3 8 3 20 14 27 10 8 18 22 16 32 -1 9 3 17 9 17 5 0 7 3 4 6 -3 4 -2 15
4 25 7 14 6 19 -3 19 -10 0 -10 3 1 9 9 6 11 15 6 27 -5 11 -9 21 -9 24 -1 3
-7 20 -15 38 -12 29 -18 34 -37 31 -4 0 -11 5 -15 13 -7 10 -9 10 -9 0z"/>
<path d="M1695 7638 c-16 -18 -29 -36 -27 -41 1 -5 -2 -6 -8 -2 -5 3 -10 1
-10 -5 0 -6 -4 -8 -10 -5 -5 3 -10 0 -10 -7 0 -7 -12 -24 -25 -37 -14 -13 -25
-27 -25 -33 0 -5 -5 -6 -12 -2 -6 4 -8 3 -4 -4 3 -6 2 -13 -4 -17 -6 -4 -7
-11 -4 -17 5 -7 2 -8 -5 -4 -8 5 -14 1 -18 -12 -3 -11 -12 -23 -20 -26 -8 -3
-12 -10 -8 -15 3 -6 -4 -15 -15 -21 -11 -6 -20 -17 -20 -25 0 -8 -8 -19 -17
-24 -10 -6 -14 -11 -9 -11 6 0 1 -9 -10 -20 -30 -30 -44 -48 -44 -57 0 -5 -9
-16 -20 -26 -12 -10 -18 -22 -15 -28 4 -5 2 -8 -3 -7 -6 2 -11 -1 -12 -7 -1
-5 -8 -14 -16 -18 -8 -5 -12 -12 -9 -18 4 -5 -1 -9 -10 -9 -9 0 -14 -4 -10 -9
3 -6 -4 -15 -15 -21 -11 -6 -19 -14 -17 -18 3 -9 -46 -58 -55 -54 -5 1 -8 -5
-8 -14 0 -8 -4 -13 -9 -9 -5 3 -12 -4 -16 -15 -4 -11 -11 -18 -16 -15 -10 7
-12 -15 -3 -39 5 -12 10 -14 19 -6 10 9 13 7 10 -7 -1 -10 2 -24 8 -30 6 -9 6
-13 -3 -13 -7 0 -10 -7 -7 -14 4 -9 -2 -17 -14 -21 -10 -4 -19 -12 -19 -19 0
-7 -14 -27 -30 -45 -17 -17 -27 -31 -23 -31 5 0 0 -5 -10 -11 -9 -6 -15 -14
-12 -20 4 -5 1 -9 -5 -9 -7 0 -10 -6 -7 -14 3 -8 0 -16 -6 -19 -7 -3 -21 -28
-32 -56 -11 -28 -23 -51 -28 -51 -4 0 -5 -4 -2 -10 3 -5 1 -10 -5 -10 -6 0 -8
-5 -4 -11 3 -6 3 -14 -2 -18 -10 -6 -37 -60 -38 -74 -1 -4 -8 -12 -16 -17 -8
-5 -12 -10 -7 -10 4 0 -4 -18 -18 -40 -14 -22 -25 -42 -25 -44 0 -3 -5 -17
-11 -33 -7 -15 -12 -37 -13 -48 -1 -23 33 -67 46 -59 4 3 8 -2 8 -10 0 -19 13
-27 52 -33 20 -3 28 -1 23 6 -3 6 -2 11 3 11 5 0 21 18 36 40 15 23 31 38 36
35 6 -4 10 1 10 9 0 9 8 24 18 34 10 10 16 24 14 32 -3 7 0 10 6 6 6 -3 13 -2
17 4 3 5 0 10 -7 11 -7 0 -5 4 5 8 10 4 19 11 20 16 1 6 12 21 24 35 67 72 69
74 48 60 -11 -8 1 7 27 33 26 26 57 47 68 47 11 0 20 5 20 11 0 6 9 9 20 6 11
-3 20 -1 20 5 0 6 7 8 15 4 8 -3 15 -2 15 2 0 5 10 8 23 8 12 1 38 4 57 8 56
11 94 17 112 17 10 0 20 5 23 10 4 5 11 7 16 4 5 -4 9 -1 9 5 0 6 4 8 10 5 5
-3 19 -1 31 5 11 7 32 9 46 5 20 -5 23 -8 13 -20 -10 -12 -10 -15 1 -15 12 0
12 -2 0 -9 -9 -6 -10 -11 -2 -15 6 -4 8 -13 4 -19 -12 -19 -11 -137 1 -137 6
0 4 -5 -4 -10 -8 -5 -10 -10 -5 -10 6 0 10 -18 9 -40 0 -22 4 -40 10 -40 6 0
5 -4 -3 -9 -9 -6 -10 -11 -2 -15 6 -4 9 -12 6 -17 -4 -5 -1 -9 4 -9 6 0 11 -9
11 -21 0 -12 8 -23 20 -26 11 -3 17 -10 13 -16 -4 -6 -1 -7 8 -1 8 4 23 10 34
11 11 2 22 8 23 13 2 6 8 8 13 4 5 -3 9 2 9 10 0 10 6 13 17 9 11 -4 14 -3 9
5 -4 7 -2 12 4 12 7 0 9 7 6 16 -4 9 -2 13 5 8 8 -4 9 1 3 17 -4 13 -7 31 -7
39 0 8 -9 31 -20 50 -18 32 -31 120 -17 120 6 0 3 77 -4 96 -3 8 0 11 11 7 13
-5 13 -3 5 14 -6 11 -7 25 -2 33 5 8 6 18 4 22 -3 5 0 7 8 6 7 -2 12 3 10 11
-2 11 0 12 11 3 10 -9 16 -9 25 0 7 7 12 8 12 3 0 -6 5 -3 10 5 8 13 10 13 10
1 0 -11 4 -10 16 5 8 10 13 13 9 7 -7 -15 11 -18 20 -3 3 5 12 7 20 3 8 -3 15
0 15 6 0 6 7 8 15 5 8 -4 22 -1 29 5 11 9 15 9 19 -1 4 -11 6 -10 6 0 1 7 6
10 11 7 6 -3 10 -2 10 4 0 6 7 8 15 5 8 -4 15 -2 15 3 0 5 10 9 22 10 11 1 25
7 29 14 4 7 14 9 24 6 9 -4 14 -3 10 3 -3 6 -2 10 2 10 5 0 14 9 21 21 8 12 9
18 3 14 -6 -3 -11 1 -11 10 0 9 -4 13 -10 10 -5 -3 -10 -1 -10 6 0 8 -4 8 -13
1 -8 -7 -18 -7 -27 -2 -8 5 -18 6 -24 3 -15 -10 -66 -9 -66 1 0 5 -8 2 -18 -7
-10 -10 -22 -14 -26 -10 -10 10 -127 13 -121 4 2 -4 -2 -8 -10 -8 -8 0 -11 5
-8 10 4 6 0 8 -8 5 -27 -10 -38 13 -40 91 -1 28 -5 48 -9 46 -9 -5 -6 27 4 43
4 6 2 12 -3 12 -13 0 -10 22 4 32 6 5 6 8 -2 8 -6 0 -9 9 -5 22 4 16 2 19 -8
13 -9 -6 -11 -4 -5 5 11 18 13 60 2 60 -4 0 -4 7 1 16 12 21 3 66 -12 57 -6
-4 -5 1 3 10 11 14 11 17 0 17 -12 0 -12 2 -1 9 15 9 15 20 1 38 -7 7 -6 14 1
18 8 5 8 11 1 19 -6 7 -12 29 -13 49 -2 20 -6 37 -10 37 -4 0 -5 6 -2 14 3 8
1 17 -5 20 -6 4 -7 14 -4 23 4 10 2 14 -4 10 -6 -4 -13 0 -17 8 -3 8 -1 15 5
15 6 0 3 7 -5 16 -14 14 -17 22 -15 40 0 3 -10 14 -22 25 -17 15 -24 17 -31 7
-6 -10 -8 -10 -8 0 0 21 -24 12 -55 -20z m25 -413 c7 -8 9 -15 4 -15 -4 0 -3
-5 4 -12 16 -16 15 -31 0 -22 -7 5 8 -16 35 -45 43 -49 51 -63 48 -83 0 -4 6
-5 15 -1 13 5 13 7 2 14 -7 5 -8 9 -2 9 18 0 24 -13 13 -27 -11 -13 -1 -19 25
-14 5 1 4 -5 -3 -13 -7 -8 -10 -20 -6 -26 3 -5 0 -10 -7 -10 -10 0 -9 -3 2 -9
8 -6 17 -8 21 -5 4 2 11 -1 15 -7 5 -8 3 -9 -6 -4 -10 6 -12 2 -7 -16 6 -23 5
-23 -8 -5 -20 27 -19 12 2 -27 17 -32 26 -64 16 -53 -4 3 -13 0 -22 -6 -10 -8
-8 -3 4 12 l20 25 -22 -19 c-13 -10 -20 -22 -18 -26 3 -4 -3 -14 -12 -21 -12
-10 -14 -10 -9 -1 4 6 2 12 -3 12 -6 0 -11 -5 -11 -11 0 -8 -6 -7 -17 2 -11
10 -14 10 -9 2 10 -18 -2 -16 -20 2 -21 20 -40 19 -23 -1 9 -11 2 -10 -25 5
-20 12 -35 17 -31 11 4 -7 -13 -10 -52 -8 -32 1 -64 -1 -71 -5 -6 -5 -12 -4
-12 2 0 6 -5 11 -11 11 -5 0 -7 -6 -3 -12 6 -9 3 -9 -9 0 -9 8 -20 11 -25 9
-4 -3 -14 -2 -22 4 -13 7 -13 9 0 9 13 0 13 1 0 10 -13 8 -12 10 3 10 10 0 15
5 12 10 -4 6 -1 17 5 25 7 8 9 15 4 15 -5 0 -1 5 9 11 9 6 15 14 12 20 -4 5
-2 9 4 9 6 0 8 6 5 14 -3 7 2 16 11 20 9 3 13 10 10 16 -3 5 -3 10 2 10 4 0
14 15 22 33 8 17 23 45 35 61 11 16 15 26 8 22 -17 -10 -15 -4 11 32 13 17 28
28 32 24 5 -4 5 -2 2 5 -7 11 17 43 32 43 5 0 14 -7 21 -15z m190 -319 c0 -3
-4 -8 -10 -11 -5 -3 -10 -1 -10 4 0 6 5 11 10 11 6 0 10 -2 10 -4z"/>
<path d="M1750 7126 c0 -4 7 -14 15 -22 8 -9 15 -11 15 -6 0 5 -7 15 -15 22
-8 7 -15 9 -15 6z"/>
<path d="M499 7655 c0 -5 -2 -18 -4 -27 -2 -10 1 -18 7 -18 6 0 5 -6 -2 -15
-7 -8 -8 -15 -3 -15 4 0 9 -42 10 -92 1 -51 3 -122 3 -158 1 -36 7 -71 13 -79
7 -9 8 -12 1 -8 -7 4 -10 -8 -10 -33 0 -22 3 -40 6 -40 3 0 6 -11 7 -25 4 -45
6 -55 14 -55 3 0 9 -10 12 -22 5 -19 8 -20 23 -7 16 12 17 12 9 -1 -5 -9 0 -7
14 4 12 11 20 25 17 32 -3 7 0 14 6 16 11 4 18 25 21 61 1 9 4 17 7 17 7 0 4
66 -4 78 -3 6 0 13 6 15 9 4 9 6 1 6 -6 1 -9 10 -5 23 4 16 2 19 -9 13 -12 -7
-12 -6 -1 7 14 17 13 39 -3 50 -6 5 -6 8 1 8 11 0 12 35 1 46 -4 4 -2 13 4 21
6 7 8 13 3 13 -5 0 -10 20 -12 44 -3 55 -22 94 -45 90 -9 -1 -15 2 -11 7 3 5
0 9 -6 9 -6 0 -8 4 -5 10 3 6 -1 7 -9 4 -9 -3 -16 -1 -16 6 0 6 -5 8 -11 4 -6
-3 -15 0 -20 7 -5 8 -9 10 -10 4z"/>
<path d="M14068 7638 c-7 -4 -8 -8 -3 -8 6 0 3 -5 -5 -10 -10 -6 -11 -10 -2
-10 6 0 12 -8 12 -18 0 -10 6 -24 13 -31 10 -10 8 -11 -8 -5 -16 5 -18 4 -8
-6 6 -7 9 -19 6 -26 -3 -8 1 -22 8 -31 8 -9 9 -14 3 -10 -7 4 -11 -2 -11 -18
0 -14 5 -25 11 -25 7 0 8 -3 1 -8 -14 -9 -16 -74 -2 -65 6 4 7 1 1 -8 -14 -22
-14 -130 0 -122 8 5 8 3 0 -8 -15 -20 -16 -61 -1 -52 7 4 6 0 -2 -10 -7 -9 -9
-17 -4 -17 5 0 10 -12 11 -27 1 -16 7 -29 12 -31 6 -2 10 -10 10 -17 0 -8 8
-12 20 -10 21 4 70 35 56 35 -5 0 1 9 13 19 13 11 20 25 16 30 -3 6 -2 11 3
11 5 0 9 29 8 65 0 36 -4 65 -7 65 -3 0 -5 23 -4 50 1 28 -1 50 -5 50 -4 0 -5
12 -2 26 4 20 2 25 -8 19 -9 -6 -10 -3 -1 12 7 14 7 23 -1 31 -9 9 -9 12 1 12
9 0 10 4 4 13 -5 6 -10 27 -12 46 -3 36 -54 96 -72 85 -5 -3 -9 -1 -9 4 0 11
-25 11 -42 0z"/>
<path d="M13568 7613 c-10 -3 -18 -13 -18 -24 0 -10 -4 -19 -9 -19 -4 0 -7
-11 -6 -25 2 -14 -1 -27 -6 -31 -5 -3 -7 -10 -4 -15 4 -5 2 -9 -3 -9 -5 0 -9
-6 -10 -12 -1 -17 -7 -39 -16 -60 -4 -9 -5 -22 -1 -28 3 -5 -1 -13 -10 -16
-13 -6 -14 -8 -3 -15 11 -7 11 -9 -1 -9 -7 0 -11 -6 -8 -14 3 -8 3 -17 -1 -20
-7 -8 -13 -32 -16 -69 -2 -15 -8 -33 -14 -39 -7 -7 -12 -24 -12 -39 0 -15 -5
-31 -11 -35 -8 -4 -7 -9 2 -15 10 -6 11 -9 2 -9 -7 0 -13 -7 -13 -15 0 -8 -5
-15 -11 -15 -5 0 -8 -4 -5 -9 4 -5 1 -22 -5 -38 -7 -15 -13 -39 -13 -53 -1
-14 -7 -24 -14 -22 -7 1 -12 -2 -12 -6 0 -4 -9 -8 -20 -8 -11 0 -20 3 -20 6 0
4 -14 4 -31 2 -24 -4 -30 -2 -24 8 6 10 4 11 -6 4 -14 -9 -37 -11 -126 -15
-24 -1 -43 -5 -43 -10 0 -5 -7 -5 -17 -2 -12 5 -14 3 -8 -8 8 -12 6 -12 -8 0
-13 10 -17 10 -17 1 0 -7 -7 -10 -15 -7 -8 4 -17 2 -20 -2 -3 -5 -15 -7 -27
-3 -17 4 -20 2 -14 -13 5 -14 4 -16 -7 -7 -8 7 -17 9 -21 5 -3 -4 -14 -8 -24
-9 -9 -2 -18 -7 -20 -13 -2 -5 -10 -7 -18 -4 -8 3 -14 0 -14 -6 0 -6 -3 -10
-7 -9 -16 5 -72 -25 -66 -35 3 -6 1 -7 -5 -3 -15 9 -55 -18 -44 -29 4 -5 2 -5
-4 -2 -5 3 -23 -3 -40 -14 -16 -10 -25 -19 -20 -19 6 0 1 -6 -9 -14 -11 -8
-24 -12 -29 -9 -5 4 -6 1 -2 -6 4 -6 0 -14 -8 -17 -9 -3 -16 -13 -16 -22 0 -8
-3 -12 -7 -9 -7 8 -59 -73 -55 -85 1 -5 -3 -8 -9 -8 -5 0 -8 -4 -4 -9 3 -5 1
-12 -5 -16 -5 -3 -10 -15 -10 -26 0 -11 -5 -17 -10 -14 -6 4 -9 -3 -6 -17 2
-13 0 -33 -5 -44 -4 -12 -5 -25 -2 -28 3 -3 7 -20 8 -38 3 -39 8 -58 18 -75 5
-7 5 -19 1 -25 -5 -9 -2 -8 9 1 15 12 17 12 11 -3 -7 -18 54 -89 68 -80 4 3 8
0 8 -7 0 -7 3 -10 6 -6 4 3 13 0 20 -8 8 -8 21 -12 29 -9 8 4 15 1 15 -4 0 -6
8 -11 18 -11 119 -5 149 -7 161 -15 10 -6 12 -6 7 3 -5 8 0 10 18 7 14 -3 28
-1 31 3 2 5 16 6 30 3 14 -2 31 0 38 6 8 7 18 7 27 2 8 -5 19 -5 25 0 6 5 28
10 50 12 22 2 45 6 50 9 27 14 153 -4 166 -23 3 -5 27 -11 53 -13 26 -2 52 -7
59 -11 7 -4 9 -4 5 1 -5 5 1 15 12 22 20 14 20 15 -7 36 -51 39 -53 49 -19
100 13 19 22 38 18 41 -3 3 0 6 7 6 7 0 9 5 6 10 -3 6 -1 10 5 10 7 0 9 7 6
16 -3 8 -2 13 3 10 5 -3 15 8 23 25 9 17 19 31 24 32 5 1 9 8 11 16 1 8 8 18
15 22 7 5 9 9 3 9 -5 0 -2 5 8 11 9 6 15 14 12 20 -4 5 -1 9 5 9 6 0 9 4 5 9
-3 5 -1 12 5 16 5 3 10 18 10 33 0 21 -2 24 -10 12 -7 -11 -10 -12 -10 -2 0
10 -4 10 -16 -2 -8 -9 -18 -16 -22 -17 -4 0 -20 -3 -35 -5 -19 -3 -26 -1 -22
6 3 5 1 10 -5 10 -7 0 -5 7 4 16 19 19 21 28 4 19 -7 -4 -4 1 6 9 15 12 16 16
5 16 -11 0 -11 2 -1 9 7 4 14 21 16 36 2 16 8 31 14 33 6 2 8 10 5 18 -3 8 -1
14 4 14 5 0 9 8 10 18 4 33 28 112 35 112 4 0 5 9 3 20 -2 11 1 22 6 25 5 4 7
11 4 16 -4 5 -2 9 3 9 6 0 9 6 9 13 -2 23 16 92 27 106 9 12 8 13 -4 6 -12 -7
-13 -6 -3 6 7 9 15 26 17 40 3 13 5 24 6 24 1 0 3 17 4 39 2 21 9 42 17 47 12
7 12 9 0 9 -12 0 -12 3 -3 12 16 16 15 31 0 22 -10 -6 -9 -3 0 8 8 10 14 45
15 82 1 36 7 66 12 66 6 0 4 4 -4 9 -8 5 -10 14 -6 21 10 16 12 98 3 113 -7
11 -61 17 -90 10z m-358 -847 c0 -4 6 -6 13 -3 6 2 21 1 32 -3 17 -6 20 -15
17 -54 -2 -25 -7 -44 -11 -42 -10 7 -7 -58 4 -66 6 -5 5 -8 -3 -8 -7 0 -11 -4
-8 -9 3 -5 -2 -12 -11 -15 -12 -5 -13 -10 -6 -17 15 -15 -3 -68 -32 -95 -13
-12 -21 -25 -17 -30 4 -4 1 -4 -5 0 -15 8 -56 -17 -46 -28 4 -4 0 -4 -10 0 -9
3 -24 1 -31 -5 -13 -11 -41 -19 -86 -25 -8 -1 -22 -5 -30 -9 -8 -3 -24 -7 -35
-9 -11 -2 -23 -7 -27 -13 -5 -6 -8 -6 -8 2 0 11 -30 11 -48 -1 -4 -2 -14 -1
-22 4 -8 5 -19 5 -25 0 -8 -6 -19 -2 -34 11 -12 11 -29 18 -37 15 -7 -3 -14
-1 -14 5 0 14 -26 39 -34 34 -3 -3 -4 -2 -1 2 3 3 -1 16 -9 28 -8 13 -11 27
-6 35 4 7 6 19 3 27 -3 7 0 13 7 13 6 0 8 5 5 10 -3 6 -1 10 6 10 7 0 9 3 6 6
-7 7 30 44 44 44 5 0 6 7 3 15 -4 10 0 15 11 15 10 0 26 10 36 22 11 11 19 17
19 12 0 -5 5 -2 10 6 5 8 13 15 17 16 4 0 19 5 33 11 14 6 29 11 34 11 5 0 12
4 15 9 11 15 52 34 61 28 6 -4 10 -1 10 5 0 6 5 8 10 5 6 -3 10 -1 10 6 0 7 3
9 6 6 4 -3 16 -1 28 5 11 7 30 13 40 15 11 2 21 4 22 6 7 6 94 1 94 -7z"/>
<path d="M2621 7304 c0 -11 3 -14 6 -6 3 7 2 16 -1 19 -3 4 -6 -2 -5 -13z"/>
<path d="M2570 7200 c0 -6 7 -10 15 -10 8 0 15 2 15 4 0 2 -7 6 -15 10 -8 3
-15 1 -15 -4z"/>
<path d="M11675 6972 c-3 -3 -5 -10 -5 -16 0 -6 5 -4 10 4 5 8 10 10 10 4 0
-7 6 -14 14 -17 9 -4 12 0 9 12 -4 17 -27 24 -38 13z"/>
</g>
</svg>
